<svg height="512pt" viewBox="0 0 512.001 512" width="512pt" xmlns="http://www.w3.org/2000/svg"><g fill="#fe8f8d"><path d="m276.117188 29.984375c0 11.042969-8.949219 19.992187-19.992188 19.992187-11.039062 0-19.988281-8.949218-19.988281-19.992187 0-11.039063 8.949219-19.988281 19.988281-19.988281 11.042969 0 19.992188 8.949218 19.992188 19.988281zm0 0"/><path d="m275.863281 482.015625c0 11.039063-8.949219 19.988281-19.988281 19.988281-11.042969 0-19.992188-8.949218-19.992188-19.988281s8.949219-19.992187 19.992188-19.992187c11.039062 0 19.988281 8.953124 19.988281 19.992187zm0 0"/><path d="m502.003906 256.128906c0 11.039063-8.949218 19.988282-19.988281 19.988282s-19.992187-8.949219-19.992187-19.988282c0-11.042968 8.953124-19.992187 19.992187-19.992187s19.988281 8.949219 19.988281 19.992187zm0 0"/><path d="m49.976562 255.875c0 11.039062-8.953124 19.988281-19.992187 19.988281s-19.988281-8.949219-19.988281-19.988281c0-11.042969 8.949218-19.992188 19.988281-19.992188s19.992187 8.949219 19.992187 19.992188zm0 0"/></g><path d="m460.257812 79.90625c0 15.457031-12.527343 27.984375-27.984374 27.984375-15.457032 0-27.984376-12.527344-27.984376-27.984375s12.527344-27.988281 27.984376-27.988281c15.457031 0 27.984374 12.53125 27.984374 27.988281zm0 0" fill="#ff5d5d"/><path d="m107.890625 79.726562c0 15.457032-12.527344 27.988282-27.984375 27.988282s-27.988281-12.53125-27.988281-27.988282c0-15.457031 12.53125-27.984374 27.988281-27.984374s27.984375 12.527343 27.984375 27.984374zm0 0" fill="#ff5d5d"/><path d="m107.710938 432.09375c0 15.457031-12.527344 27.988281-27.984376 27.988281-15.457031 0-27.984374-12.53125-27.984374-27.988281 0-15.453125 12.527343-27.984375 27.984374-27.984375 15.457032 0 27.984376 12.53125 27.984376 27.984375zm0 0" fill="#ff5d5d"/><path d="m460.082031 432.273438c0 15.457031-12.53125 27.988281-27.988281 27.988281s-27.984375-12.53125-27.984375-27.988281c0-15.457032 12.527344-27.984376 27.984375-27.984376s27.988281 12.527344 27.988281 27.984376zm0 0" fill="#ff5d5d"/><path d="m427.914062 256c0 94.945312-76.96875 171.914062-171.914062 171.914062s-171.914062-76.96875-171.914062-171.914062 76.96875-171.914062 171.914062-171.914062 171.914062 76.96875 171.914062 171.914062zm0 0" fill="#fe8f8d"/><path d="m354.105469 190.226562c0 17.664063-14.316407 31.984376-31.980469 31.984376-17.667969 0-31.984375-14.320313-31.984375-31.984376 0-17.664062 14.316406-31.984374 31.984375-31.984374 17.664062 0 31.980469 14.320312 31.980469 31.984374zm0 0" fill="#ff5d5d"/><path d="m215.6875 344.214844c0 11.039062-8.949219 19.988281-19.992188 19.988281-11.039062 0-19.988281-8.949219-19.988281-19.988281 0-11.039063 8.949219-19.988282 19.988281-19.988282 11.042969 0 19.992188 8.949219 19.992188 19.988282zm0 0" fill="#ff5d5d"/><path d="m189.347656 199.675781c0 14.355469-11.632812 25.988281-25.988281 25.988281-14.351563 0-25.984375-11.632812-25.984375-25.988281 0-14.351562 11.632812-25.984375 25.984375-25.984375 14.355469 0 25.988281 11.632813 25.988281 25.984375zm0 0" fill="#ff5d5d"/><path d="m363.050781 335.5c0 14.351562-11.636719 25.988281-25.988281 25.988281s-25.988281-11.636719-25.988281-25.988281 11.636719-25.984375 25.988281-25.984375 25.988281 11.632813 25.988281 25.984375zm0 0" fill="#ff5d5d"/><path d="m322.125 232.207031c23.144531 0 41.976562-18.832031 41.976562-41.980469 0-23.144531-18.832031-41.976562-41.976562-41.976562-23.148438 0-41.980469 18.832031-41.980469 41.976562 0 23.148438 18.832031 41.980469 41.980469 41.980469zm0-63.96875c12.125 0 21.988281 9.863281 21.988281 21.988281s-9.863281 21.992188-21.988281 21.992188-21.992188-9.867188-21.992188-21.992188 9.867188-21.988281 21.992188-21.988281zm0 0"/><path d="m165.710938 344.214844c0 16.535156 13.453124 29.984375 29.984374 29.984375 16.535157 0 29.988282-13.449219 29.988282-29.984375s-13.453125-29.984375-29.988282-29.984375c-16.53125 0-29.984374 13.449219-29.984374 29.984375zm39.980468 0c0 5.511718-4.484375 9.996094-9.996094 9.996094-5.507812 0-9.992187-4.484376-9.992187-9.996094 0-5.511719 4.484375-9.996094 9.992187-9.996094 5.511719 0 9.996094 4.484375 9.996094 9.996094zm0 0"/><path d="m199.34375 199.675781c0-19.839843-16.144531-35.980469-35.984375-35.980469s-35.980469 16.140626-35.980469 35.980469c0 19.84375 16.140625 35.984375 35.980469 35.984375s35.984375-16.140625 35.984375-35.984375zm-51.976562 0c0-8.816406 7.175781-15.992187 15.992187-15.992187s15.992187 7.175781 15.992187 15.992187c0 8.820313-7.175781 15.992188-15.992187 15.992188s-15.992187-7.171875-15.992187-15.992188zm0 0"/><path d="m337.0625 299.519531c-19.84375 0-35.984375 16.140625-35.984375 35.980469 0 19.84375 16.140625 35.984375 35.984375 35.984375 19.839844 0 35.980469-16.140625 35.980469-35.984375 0-19.839844-16.140625-35.980469-35.980469-35.980469zm0 51.972657c-8.816406 0-15.992188-7.171876-15.992188-15.992188 0-8.816406 7.175782-15.992188 15.992188-15.992188s15.992188 7.175782 15.992188 15.992188c0 8.820312-7.175782 15.992188-15.992188 15.992188zm0 0"/><path d="m151.050781 290.195312c2.628907 0 5.207031-1.070312 7.066407-2.929687 1.859374-1.859375 2.929687-4.4375 2.929687-7.066406 0-2.628907-1.070313-5.207031-2.929687-7.078125-1.859376-1.859375-4.4375-2.917969-7.066407-2.917969-2.628906 0-5.207031 1.058594-7.066406 2.917969-1.859375 1.871094-2.925781 4.4375-2.925781 7.078125 0 2.628906 1.066406 5.207031 2.925781 7.066406s4.4375 2.929687 7.066406 2.929687zm0 0"/><path d="m267.925781 367.84375c1.855469 1.859375 4.4375 2.929688 7.066407 2.929688 2.628906 0 5.207031-1.070313 7.0625-2.929688 1.859374-1.867188 2.929687-4.4375 2.929687-7.066406 0-2.636719-1.066406-5.207032-2.929687-7.066406-1.855469-1.867188-4.433594-2.925782-7.0625-2.925782-2.628907 0-5.210938 1.058594-7.066407 2.925782-1.859375 1.859374-2.929687 4.429687-2.929687 7.066406 0 2.628906 1.066406 5.199218 2.929687 7.066406zm0 0"/><path d="m232.339844 162.917969c2.640625 0 5.210937-1.0625 7.066406-2.929688 1.871094-1.859375 2.929688-4.4375 2.929688-7.066406s-1.058594-5.207031-2.929688-7.066406c-1.847656-1.859375-4.425781-2.929688-7.066406-2.929688-2.625 0-5.207032 1.070313-7.066406 2.929688-1.855469 1.859375-2.925782 4.4375-2.925782 7.066406 0 2.636719 1.066406 5.207031 2.925782 7.066406 1.859374 1.867188 4.441406 2.929688 7.066406 2.929688zm0 0"/><path d="m386.933594 265.867188c2.628906 0 5.207031-1.0625 7.066406-2.929688 1.859375-1.859375 2.929688-4.4375 2.929688-7.066406s-1.070313-5.207032-2.929688-7.066406c-1.859375-1.859376-4.4375-2.929688-7.066406-2.929688s-5.207032 1.070312-7.066406 2.929688c-1.859376 1.859374-2.925782 4.4375-2.925782 7.066406 0 2.636718 1.066406 5.207031 2.925782 7.066406 1.859374 1.867188 4.4375 2.929688 7.066406 2.929688zm0 0"/><path d="m246.136719 256c0 2.628906 1.058593 5.207031 2.925781 7.066406 1.859375 1.859375 4.429688 2.929688 7.066406 2.929688 2.628906 0 5.207032-1.070313 7.066406-2.929688 1.859376-1.859375 2.929688-4.4375 2.929688-7.066406s-1.070312-5.207031-2.929688-7.066406c-1.859374-1.859375-4.4375-2.929688-7.066406-2.929688-2.636718 0-5.207031 1.070313-7.066406 2.929688-1.867188 1.859375-2.925781 4.4375-2.925781 7.066406zm0 0"/><path d="m482.015625 226.140625c-13.03125 0-24.140625 8.359375-28.265625 19.992187h-16.109375c-2.292969-42.644531-19.34375-81.429687-46.121094-111.339843l21.90625-21.90625c5.679688 3.257812 12.128907 5 18.847657 5 10.144531 0 19.683593-3.949219 26.855468-11.125 7.175782-7.171875 11.125-16.710938 11.125-26.855469s-3.949218-19.683594-11.125-26.855469c-7.171875-7.175781-16.710937-11.125-26.855468-11.125-10.144532 0-19.683594 3.949219-26.855469 11.125-7.175781 7.171875-11.125 16.710938-11.125 26.855469 0 6.71875 1.742187 13.167969 5 18.847656l-21.898438 21.894532c-29.871093-26.820313-68.636719-43.921876-111.273437-46.273438v-16.125c11.632812-4.125 19.988281-15.234375 19.988281-28.265625 0-16.53125-13.449219-29.984375-29.984375-29.984375-16.53125 0-29.984375 13.453125-29.984375 29.984375 0 13.03125 8.355469 24.140625 19.992187 28.265625v16.109375c-42.648437 2.292969-81.433593 19.34375-111.339843 46.121094l-21.914063-21.914063c8.277344-14.503906 6.242188-33.335937-6.117187-45.695312-7.175781-7.175782-16.710938-11.125-26.855469-11.125-10.148438 0-19.683594 3.949218-26.859375 11.125-14.808594 14.808594-14.808594 38.902344 0 53.710937 7.175781 7.175781 16.710937 11.125 26.859375 11.125 6.71875 0 13.167969-1.742187 18.84375-5l21.894531 21.894531c-26.816406 29.875-43.917969 68.640626-46.265625 111.277344h-16.128906c-4.125-11.632812-15.234375-19.992187-28.265625-19.992187-16.53125 0-29.984375 13.453125-29.984375 29.988281 0 16.53125 13.453125 29.984375 29.984375 29.984375 13.03125 0 24.140625-8.359375 28.265625-19.992187h16.109375c2.292969 42.648437 19.34375 81.433593 46.121094 111.339843l-21.910157 21.90625c-5.675781-3.257812-12.125-5-18.84375-5-10.144531 0-19.683593 3.949219-26.859374 11.125-7.171876 7.171875-11.121094 16.710938-11.121094 26.855469s3.949218 19.683594 11.121094 26.855469c7.175781 7.175781 16.714843 11.125 26.859374 11.125 10.144532 0 19.679688-3.949219 26.855469-11.125 7.171875-7.171875 11.125-16.710938 11.125-26.855469 0-6.71875-1.742187-13.167969-5-18.847656l21.894531-21.894532c29.875 26.820313 68.640626 43.921876 111.277344 46.273438v16.125c-11.632812 4.125-19.992187 15.234375-19.992187 28.265625 0 16.535156 13.453125 29.984375 29.988281 29.984375 16.53125 0 29.984375-13.449219 29.984375-29.984375 0-13.03125-8.359375-24.140625-19.992187-28.265625v-16.109375c42.648437-2.292969 81.429687-19.339844 111.339843-46.117187l21.914063 21.914062c-8.277344 14.5-6.246094 33.332031 6.117187 45.695312 7.175781 7.171876 16.710938 11.125 26.855469 11.125s19.683594-3.953124 26.859375-11.125c14.804687-14.808593 14.804687-38.90625 0-53.714843-7.175781-7.175781-16.714844-11.125-26.859375-11.125-6.71875 0-13.167969 1.742187-18.847656 5l-21.894532-21.894531c26.820313-29.875 43.921876-68.640626 46.273438-111.273438h16.125c4.125 11.632812 15.234375 19.988281 28.265625 19.988281 16.535156 0 29.984375-13.449219 29.984375-29.984375s-13.453125-29.988281-29.984375-29.988281zm-62.460937-158.957031c3.394531-3.398438 7.914062-5.269532 12.71875-5.269532 4.808593 0 9.324218 1.871094 12.722656 5.269532 7.015625 7.015625 7.015625 18.429687 0 25.441406-3.398438 3.398438-7.914063 5.269531-12.722656 5.269531-4.804688 0-9.320313-1.871093-12.71875-5.269531-7.015626-7.011719-7.015626-18.425781 0-25.441406zm-163.429688-47.191406c5.511719 0 9.996094 4.480468 9.996094 9.992187s-4.484375 9.996094-9.996094 9.996094c-5.507812 0-9.992188-4.484375-9.992188-9.996094s4.484376-9.992187 9.992188-9.992187zm-188.941406 72.457031c-7.015625-7.015625-7.015625-18.429688 0-25.445313 3.507812-3.507812 8.113281-5.261718 12.722656-5.261718s9.214844 1.753906 12.722656 5.261718c7.015625 7.015625 7.015625 18.429688 0 25.445313s-18.429687 7.015625-25.445312 0zm-37.199219 173.417969c-5.511719 0-9.996094-4.480469-9.996094-9.992188s4.484375-9.996094 9.996094-9.996094 9.996094 4.484375 9.996094 9.996094-4.484375 9.992188-9.996094 9.992188zm226.015625-171.785157c89.28125 0 161.917969 72.636719 161.917969 161.917969 0 89.285156-72.636719 161.921875-161.917969 161.921875s-161.917969-72.636719-161.917969-161.921875c0-89.28125 72.636719-161.917969 161.917969-161.917969zm-163.554688 350.734375c-3.394531 3.398438-7.914062 5.269532-12.71875 5.269532-4.808593 0-9.324218-1.871094-12.722656-5.269532-7.015625-7.015625-7.015625-18.425781 0-25.441406 3.398438-3.398438 7.914063-5.269531 12.722656-5.269531 4.804688 0 9.320313 1.871093 12.71875 5.269531 7.015626 7.011719 7.015626 18.425781 0 25.441406zm163.429688 47.195313c-5.511719 0-9.996094-4.484375-9.996094-9.996094s4.484375-9.996094 9.996094-9.996094c5.507812 0 9.992188 4.484375 9.992188 9.996094s-4.484376 9.996094-9.992188 9.996094zm188.941406-72.460938c7.015625 7.015625 7.015625 18.429688 0 25.445313s-18.429687 7.015625-25.445312 0c-7.011719-7.015625-7.011719-18.429688 0-25.445313 3.507812-3.507812 8.117187-5.261719 12.722656-5.261719 4.605469.003907 9.214844 1.757813 12.722656 5.261719zm37.199219-153.429687c-5.511719 0-9.996094-4.480469-9.996094-9.992188 0-5.511718 4.484375-9.996094 9.996094-9.996094s9.996094 4.484376 9.996094 9.996094c0 5.511719-4.484375 9.992188-9.996094 9.992188zm0 0"/><path d="m237.433594 175.128906c-5.378906 1.234375-8.742188 6.59375-7.507813 11.976563l5.910157 25.777343c1.058593 4.628907 5.175781 7.765626 9.730468 7.765626.738282 0 1.492188-.085938 2.242188-.257813 5.378906-1.230469 8.742187-6.59375 7.507812-11.972656l-5.90625-25.777344c-1.234375-5.382813-6.59375-8.746094-11.976562-7.511719zm0 0"/></svg>